<?xml version="1.0" encoding="UTF-8"?>
<svg version="1.1" xmlns="http://www.w3.org/2000/svg" width="2014" height="1198">
<path d="M0 0 C664.62 0 1329.24 0 2014 0 C2014 395.34 2014 790.68 2014 1198 C1349.38 1198 684.76 1198 0 1198 C0 802.66 0 407.32 0 0 Z " fill="#10161A" transform="translate(0,0)"/>
<path d="M0 0 C0 0.66 0 1.32 0 2 C-1.17755859 2.4021875 -1.17755859 2.4021875 -2.37890625 2.8125 C-9.81423118 5.58592181 -14.4119695 8.48952011 -19 15 C-19.66 14.34 -20.32 13.68 -21 13 C-19.46817277 11.38643496 -17.92405437 9.78453393 -16.375 8.1875 C-15.51648438 7.29417969 -14.65796875 6.40085937 -13.7734375 5.48046875 C-9.5316549 1.68676177 -5.76788626 -0.50893114 0 0 Z " fill="#161C20" transform="translate(732,649)"/>
<path d="M0 0 C0.99 0.33 1.98 0.66 3 1 C2.278125 1.70125 1.55625 2.4025 0.8125 3.125 C-1.16932126 5.08993073 -2.94707153 7.13178456 -4.6875 9.3125 C-5.450625 10.199375 -6.21375 11.08625 -7 12 C-7.66 12 -8.32 12 -9 12 C-8.40503246 8.67258892 -7.29522827 6.82909592 -5.0625 4.3125 C-4.53785156 3.71050781 -4.01320313 3.10851562 -3.47265625 2.48828125 C-2 1 -2 1 0 0 Z " fill="#161C20" transform="translate(1020,727)"/>
<path d="M0 0 C-0.99 1.485 -0.99 1.485 -2 3 C-5.2578125 3.51171875 -5.2578125 3.51171875 -9.125 3.6875 C-11.04699219 3.78611328 -11.04699219 3.78611328 -13.0078125 3.88671875 C-13.99523437 3.92410156 -14.98265625 3.96148438 -16 4 C-14 1 -14 1 -10.8125 0.3125 C-7.18514304 0.01517566 -3.63746198 -0.07423392 0 0 Z " fill="#181E21" transform="translate(735,614)"/>
<path d="M0 0 C0.66 0.99 1.32 1.98 2 3 C1.01 4.485 1.01 4.485 0 6 C-2.97 5.67 -5.94 5.34 -9 5 C-6.42595029 1.13892543 -4.38979741 1.05680308 0 0 Z " fill="#161C1F" transform="translate(35,1192)"/>
<path d="M0 0 C0.66 0.33 1.32 0.66 2 1 C0.49087042 5.98012761 -2.55661849 9.24259942 -6 13 C-6.99 12.67 -7.98 12.34 -9 12 C-6 8 -3 4 0 0 Z " fill="#161C20" transform="translate(1615,555)"/>
<path d="M0 0 C0.66 0.66 1.32 1.32 2 2 C1.45730469 2.47050781 0.91460938 2.94101563 0.35546875 3.42578125 C-0.35996094 4.04839844 -1.07539062 4.67101562 -1.8125 5.3125 C-2.52019531 5.92738281 -3.22789062 6.54226562 -3.95703125 7.17578125 C-5.70136739 8.73334335 -7.36778041 10.32658875 -9 12 C-9 8 -9 8 -7.5390625 6.11328125 C-6.90742187 5.51902344 -6.27578125 4.92476562 -5.625 4.3125 C-4.99851562 3.71050781 -4.37203125 3.10851562 -3.7265625 2.48828125 C-2 1 -2 1 0 0 Z " fill="#171C20" transform="translate(693,174)"/>
<path d="M0 0 C0.66 0.66 1.32 1.32 2 2 C-1.1756771 4.72200894 -3.96113632 6.79925674 -8 8 C-8.66 7.67 -9.32 7.34 -10 7 C-9.67 6.01 -9.34 5.02 -9 4 C-5.5625 2.375 -5.5625 2.375 -2 1 C-1.34 0.67 -0.68 0.34 0 0 Z " fill="#161C1F" transform="translate(1626,776)"/>
<path d="M0 0 C0.66 0.99 1.32 1.98 2 3 C1.04882866 4.1725131 0.08882991 5.33787015 -0.875 6.5 C-1.40867187 7.1496875 -1.94234375 7.799375 -2.4921875 8.46875 C-2.98976563 8.9740625 -3.48734375 9.479375 -4 10 C-4.66 10 -5.32 10 -6 10 C-5.49477778 5.62140745 -2.82172778 3.18348776 0 0 Z " fill="#161C1F" transform="translate(1172,715)"/>
<path d="M0 0 C2.875 0.3125 2.875 0.3125 6 1 C6.66 1.99 7.32 2.98 8 4 C4.37 4 0.74 4 -3 4 C-2.01 2.68 -1.02 1.36 0 0 Z " fill="#161B1F" transform="translate(1157,1194)"/>
<path d="M0 0 C1.125 1.6875 1.125 1.6875 2 4 C0.99447666 8.02209334 -0.95620945 10.2605885 -4 13 C-4.99 12.67 -5.98 12.34 -7 12 C-6.57847656 11.55269531 -6.15695312 11.10539062 -5.72265625 10.64453125 C-1.4622021 6.01600234 -1.4622021 6.01600234 0 0 Z " fill="#171D20" transform="translate(1421,1113)"/>
<path d="M0 0 C0 0.66 0 1.32 0 2 C-0.9075 2.0825 -1.815 2.165 -2.75 2.25 C-6.40077839 3.09248732 -7.63384583 4.17881618 -10 7 C-9.67226629 3.96846314 -9.35865103 2.38426897 -7.25 0.125 C-4.40525065 -1.29737468 -2.98383376 -0.91172698 0 0 Z " fill="#161C20" transform="translate(79,830)"/>
<path d="M0 0 C0.33 0.99 0.66 1.98 1 3 C0.07421875 4.82421875 0.07421875 4.82421875 -1.3125 6.6875 C-1.76238281 7.31011719 -2.21226563 7.93273437 -2.67578125 8.57421875 C-3.11277344 9.04472656 -3.54976562 9.51523437 -4 10 C-4.66 10 -5.32 10 -6 10 C-5.58578031 5.16743695 -3.53586014 3.17320782 0 0 Z " fill="#161C20" transform="translate(1997,715)"/>
<path d="M0 0 C4.75 0.875 4.75 0.875 7 2 C7 2.66 7 3.32 7 4 C3.7 4 0.4 4 -3 4 C-2.01 2.68 -1.02 1.36 0 0 Z " fill="#161B1F" transform="translate(332,1194)"/>
<path d="M0 0 C-1.10095362 3.30286086 -1.6896019 3.78510901 -4.4375 5.6875 C-5.36369141 6.34298828 -5.36369141 6.34298828 -6.30859375 7.01171875 C-8 8 -8 8 -10 8 C-10 7.34 -10 6.68 -10 6 C-9.34 6 -8.68 6 -8 6 C-7.67 5.01 -7.34 4.02 -7 3 C-4.41927097 0.67734388 -3.54823932 0 0 0 Z " fill="#161C20" transform="translate(1395,811)"/>
<path d="M0 0 C0.33 0.99 0.66 1.98 1 3 C-0.43359375 5.04296875 -0.43359375 5.04296875 -2.4375 7.1875 C-3.09621094 7.90292969 -3.75492188 8.61835938 -4.43359375 9.35546875 C-4.95050781 9.89816406 -5.46742188 10.44085938 -6 11 C-6.66 10.67 -7.32 10.34 -8 10 C-6.34908222 5.70761377 -3.26245434 3.1206085 0 0 Z " fill="#161C20" transform="translate(543,268)"/>
<path d="M0 0 C-1.04097738 2.7443949 -1.97284187 3.9787139 -4.3125 5.8125 C-7.4238722 7.18729237 -8.80876679 7.00295901 -12 6 C-11.67 5.34 -11.34 4.68 -11 4 C-9.66666667 3.66666667 -8.33333333 3.33333333 -7 3 C-1.96 0 -1.96 0 0 0 Z " fill="#161C20" transform="translate(604,1182)"/>
<path d="M0 0 C0.33 0.99 0.66 1.98 1 3 C-2.83314543 8.63697858 -2.83314543 8.63697858 -6.8125 9.875 C-7.8953125 9.936875 -7.8953125 9.936875 -9 10 C-8.06409496 8.8944811 -7.12620142 7.79064547 -6.1875 6.6875 C-5.66542969 6.07261719 -5.14335938 5.45773437 -4.60546875 4.82421875 C-3.12827531 3.14575321 -1.59960869 1.56117966 0 0 Z " fill="#171D20" transform="translate(1994,1138)"/>
<path d="M0 0 C0.66 0.66 1.32 1.32 2 2 C1.21625 2.7425 0.4325 3.485 -0.375 4.25 C-2.56504531 6.54433318 -3.82731386 8.12158858 -5 11 C-5.66 10.67 -6.32 10.34 -7 10 C-2.87804878 1.43902439 -2.87804878 1.43902439 0 0 Z " fill="#161C20" transform="translate(1833,475)"/>
<path d="M0 0 C0.66 0 1.32 0 2 0 C1.62403791 2.78211944 1.32681541 4.5879284 -0.4375 6.8125 C-2 8 -2 8 -4 8 C-3.40312566 4.65750371 -2.26396123 2.53563658 0 0 Z " fill="#161C20" transform="translate(462,128)"/>
<path d="M0 0 C-2 3 -2 3 -4.1640625 3.51171875 C-4.97617188 3.56972656 -5.78828125 3.62773438 -6.625 3.6875 C-7.85089844 3.78611328 -7.85089844 3.78611328 -9.1015625 3.88671875 C-9.72804687 3.92410156 -10.35453125 3.96148438 -11 4 C-8.12680193 0.87807733 -4.22911043 -2.11455521 0 0 Z " fill="#161C1F" transform="translate(178,660)"/>
<path d="M0 0 C-0.33 0.99 -0.66 1.98 -1 3 C-5.455 3.495 -5.455 3.495 -10 4 C-6.32379932 0.32379932 -5.15439554 0 0 0 Z " fill="#171D20" transform="translate(1638,831)"/>
<path d="M0 0 C0.99 0.33 1.98 0.66 3 1 C0.03716687 3.38672669 -2.94270509 5.7353371 -6 8 C-6 5 -6 5 -4.125 2.875 C-2 1 -2 1 0 0 Z " fill="#171C20" transform="translate(568,811)"/>
<path d="M0 0 C0.99 0.33 1.98 0.66 3 1 C0.33333333 3.66666667 -2.33333333 6.33333333 -5 9 C-5 5 -5 5 -2.5 2.25 C-1.675 1.5075 -0.85 0.765 0 0 Z " fill="#171C20" transform="translate(530,1150)"/>
<path d="M0 0 C0.66 0.33 1.32 0.66 2 1 C1.67 3.31 1.34 5.62 1 8 C0.01 8.33 -0.98 8.66 -2 9 C-1.125 2.25 -1.125 2.25 0 0 Z " fill="#161C20" transform="translate(708,466)"/>
<path d="M0 0 C0.99 0.99 1.98 1.98 3 3 C0.06171403 5.50298434 -2.17902761 6.46930939 -6 7 C-4.02 4.69 -2.04 2.38 0 0 Z " fill="#171C20" transform="translate(999,310)"/>
<path d="M0 0 C-1.4638611 4.39158329 -3.97831338 4.87947433 -8 7 C-8.66 6.34 -9.32 5.68 -10 5 C-9.236875 4.54625 -8.47375 4.0925 -7.6875 3.625 C-1.69230769 0 -1.69230769 0 0 0 Z " fill="#171D21" transform="translate(565,175)"/>
<path d="M0 0 C0.66 0.66 1.32 1.32 2 2 C-1.6441774 4.4294516 -3.71241272 4.16179575 -8 4 C-7.67 3.34 -7.34 2.68 -7 2 C-4.6859378 1.26924352 -2.35171131 0.59861742 0 0 Z " fill="#161C20" transform="translate(1425,1184)"/>
<path d="M0 0 C0 0.66 0 1.32 0 2 C-2.97 2.66 -5.94 3.32 -9 4 C-8.67 3.01 -8.34 2.02 -8 1 C-5.07175348 0.02391783 -3.04386724 -0.08226668 0 0 Z " fill="#161C20" transform="translate(671,1089)"/>
<path d="M0 0 C0.66 0.33 1.32 0.66 2 1 C0.77065985 4.68802044 -0.93859378 5.72356973 -4 8 C-4 4 -4 4 -2 1.75 C-1.01 0.88375 -1.01 0.88375 0 0 Z " fill="#161B1F" transform="translate(1669,1015)"/>
<path d="M0 0 C0.66 0 1.32 0 2 0 C1.67 2.31 1.34 4.62 1 7 C0.01 7.33 -0.98 7.66 -2 8 C-1.125 1.125 -1.125 1.125 0 0 Z " fill="#171C20" transform="translate(702,466)"/>
<path d="M0 0 C0 0.66 0 1.32 0 2 C-1.423125 2.433125 -1.423125 2.433125 -2.875 2.875 C-6.05211578 3.76825109 -6.05211578 3.76825109 -8 6 C-8 4.68 -8 3.36 -8 2 C-4.77208445 -0.1519437 -3.71599191 -0.20086443 0 0 Z " fill="#161C20" transform="translate(663,64)"/>
<path d="M0 0 C-1 3 -1 3 -3.9375 4.75 C-5.4534375 5.36875 -5.4534375 5.36875 -7 6 C-7.66 5.67 -8.32 5.34 -9 5 C-4.5 0 -4.5 0 0 0 Z " fill="#161C20" transform="translate(1536,762)"/>
<path d="M0 0 C0.33 0 0.66 0 1 0 C0.67 2.97 0.34 5.94 0 9 C-0.99 9 -1.98 9 -3 9 C-1.125 2.25 -1.125 2.25 0 0 Z " fill="#161C20" transform="translate(1386,29)"/>
<path d="M0 0 C0.66 0.66 1.32 1.32 2 2 C0.1875 4.5 0.1875 4.5 -2 7 C-2.99 7 -3.98 7 -5 7 C-4.67 6.01 -4.34 5.02 -4 4 C-3.34 4 -2.68 4 -2 4 C-1.34 2.68 -0.68 1.36 0 0 Z " fill="#161C20" transform="translate(260,17)"/>
<path d="M0 0 C0.66 0.66 1.32 1.32 2 2 C0.37660195 3.70884005 -1.29319053 5.37446717 -3 7 C-3.66 7 -4.32 7 -5 7 C-3.70700306 4.11562221 -2.34058637 2.12780579 0 0 Z " fill="#171C20" transform="translate(1668,831)"/>
<path d="M0 0 C0.66 0.33 1.32 0.66 2 1 C-0.475 4.465 -0.475 4.465 -3 8 C-3.66 7.67 -4.32 7.34 -5 7 C-3.75023244 3.34683329 -3.32901247 2.21934164 0 0 Z " fill="#161C1F" transform="translate(867,598)"/>
<path d="M0 0 C0.66 0.33 1.32 0.66 2 1 C0.35 2.98 -1.3 4.96 -3 7 C-3.66 6.34 -4.32 5.68 -5 5 C-3.35 3.35 -1.7 1.7 0 0 Z " fill="#161B1F" transform="translate(1857,283)"/>
<path d="M0 0 C-0.33 0.99 -0.66 1.98 -1 3 C-2.98 3.33 -4.96 3.66 -7 4 C-6.67 3.01 -6.34 2.02 -6 1 C-3 0 -3 0 0 0 Z " fill="#161C20" transform="translate(191,1144)"/>
<path d="M0 0 C0.66 0 1.32 0 2 0 C1.3125 2.375 1.3125 2.375 0 5 C-2.625 6.3125 -2.625 6.3125 -5 7 C-1.125 1.125 -1.125 1.125 0 0 Z " fill="#171C20" transform="translate(1822,1039)"/>
<path d="M0 0 C0.66 0.33 1.32 0.66 2 1 C1.67 1.99 1.34 2.98 1 4 C-1.5625 5.1875 -1.5625 5.1875 -4 6 C-4.66 5.34 -5.32 4.68 -6 4 C-4.02 2.68 -2.04 1.36 0 0 Z " fill="#161C20" transform="translate(630,25)"/>
<path d="M0 0 C-0.33 0.99 -0.66 1.98 -1 3 C-2.98 3.33 -4.96 3.66 -7 4 C-6.67 3.01 -6.34 2.02 -6 1 C-3 0 -3 0 0 0 Z " fill="#171C20" transform="translate(1841,1144)"/>
<path d="M0 0 C-0.33 0.66 -0.66 1.32 -1 2 C-3.32156597 2.40729228 -5.6568787 2.74438677 -8 3 C-5.45189726 -0.82215411 -4.39145359 -1.46381786 0 0 Z " fill="#161C20" transform="translate(1023,1142)"/>
<path d="M0 0 C0.33 0.66 0.66 1.32 1 2 C-3.625 5 -3.625 5 -7 5 C-6.67 4.01 -6.34 3.02 -6 2 C-2.9375 0.8125 -2.9375 0.8125 0 0 Z " fill="#171D20" transform="translate(135,778)"/>
<path d="M0 0 C-1.0975223 2.99324263 -1.67682892 3.84610901 -4.625 5.25 C-5.40875 5.4975 -6.1925 5.745 -7 6 C-3.61538462 0 -3.61538462 0 0 0 Z " fill="#171C20" transform="translate(1445,481)"/>
<path d="M0 0 C0.66 0.66 1.32 1.32 2 2 C0.35 3.32 -1.3 4.64 -3 6 C-3.33 5.34 -3.66 4.68 -4 4 C-2.68 2.68 -1.36 1.36 0 0 Z " fill="#161B1F" transform="translate(1008,475)"/>
<path d="M0 0 C-0.33 0.99 -0.66 1.98 -1 3 C-3.64 3 -6.28 3 -9 3 C-5.92807025 0.26939578 -4.09590633 -0.34132553 0 0 Z " fill="#161C20" transform="translate(1506,424)"/>
<path d="M0 0 C-2.35953094 2.35953094 -3.77895617 2.49141413 -7 3 C-6.67 2.01 -6.34 1.02 -6 0 C-3.50907189 -1.24546405 -2.58919267 -0.7767578 0 0 Z " fill="#161C20" transform="translate(1105,395)"/>
<path d="M0 0 C-0.33 0.99 -0.66 1.98 -1 3 C-3.5625 4.1875 -3.5625 4.1875 -6 5 C-6 4.01 -6 3.02 -6 2 C-3 0 -3 0 0 0 Z " fill="#161C20" transform="translate(433,313)"/>
<path d="M0 0 C0.66 0.33 1.32 0.66 2 1 C2 1.66 2 2.32 2 3 C1.360625 3.103125 0.72125 3.20625 0.0625 3.3125 C-0.618125 3.539375 -1.29875 3.76625 -2 4 C-2.33 4.99 -2.66 5.98 -3 7 C-3.66 7 -4.32 7 -5 7 C-3.70700306 4.11562221 -2.34058637 2.12780579 0 0 Z " fill="#161C20" transform="translate(1802,219)"/>
<path d="M0 0 C-0.33 0.66 -0.66 1.32 -1 2 C-3.32156597 2.40729228 -5.6568787 2.74438677 -8 3 C-5.45189726 -0.82215411 -4.39145359 -1.46381786 0 0 Z " fill="#161C20" transform="translate(564,667)"/>
</svg>
