<svg width="520" height="520" viewBox="0 0 520 520" fill="none" xmlns="http://www.w3.org/2000/svg">
<g filter="url(#filter0_d_84_19)">
<rect x="4" width="512" height="512" rx="30" fill="url(#paint0_linear_84_19)"/>
<path d="M170.409 326.223H160.61C160.431 324.955 160.065 323.829 159.513 322.844C158.962 321.845 158.253 320.995 157.388 320.294C156.523 319.593 155.524 319.056 154.39 318.683C153.272 318.31 152.056 318.124 150.744 318.124C148.372 318.124 146.306 318.713 144.547 319.891C142.787 321.055 141.422 322.755 140.452 324.992C139.483 327.214 138.998 329.914 138.998 333.091C138.998 336.357 139.483 339.102 140.452 341.324C141.437 343.546 142.809 345.224 144.569 346.358C146.329 347.491 148.365 348.058 150.676 348.058C151.974 348.058 153.175 347.886 154.278 347.543C155.397 347.2 156.389 346.701 157.254 346.044C158.119 345.373 158.835 344.56 159.402 343.606C159.983 342.651 160.386 341.562 160.61 340.339L170.409 340.384C170.155 342.487 169.521 344.516 168.507 346.469C167.508 348.408 166.158 350.146 164.458 351.682C162.772 353.203 160.759 354.412 158.417 355.306C156.091 356.186 153.458 356.626 150.52 356.626C146.433 356.626 142.779 355.702 139.558 353.852C136.351 352.003 133.815 349.326 131.951 345.821C130.102 342.316 129.177 338.072 129.177 333.091C129.177 328.094 130.116 323.844 131.996 320.339C133.875 316.834 136.425 314.164 139.647 312.33C142.869 310.48 146.493 309.555 150.52 309.555C153.175 309.555 155.636 309.928 157.903 310.674C160.185 311.42 162.206 312.509 163.966 313.94C165.725 315.357 167.157 317.095 168.261 319.153C169.38 321.211 170.096 323.568 170.409 326.223ZM186.707 336.134V356H177.176V310.182H186.438V327.699H186.841C187.617 325.671 188.869 324.082 190.6 322.934C192.33 321.771 194.5 321.189 197.11 321.189C199.496 321.189 201.577 321.711 203.352 322.755C205.142 323.784 206.529 325.268 207.513 327.207C208.512 329.131 209.004 331.435 208.99 334.12V356H199.459V335.82C199.474 333.702 198.937 332.054 197.848 330.876C196.774 329.698 195.268 329.109 193.329 329.109C192.031 329.109 190.883 329.385 189.884 329.936C188.899 330.488 188.124 331.294 187.557 332.353C187.005 333.397 186.722 334.657 186.707 336.134ZM226.289 356.649C224.096 356.649 222.142 356.268 220.427 355.508C218.712 354.732 217.355 353.591 216.356 352.085C215.371 350.564 214.879 348.669 214.879 346.402C214.879 344.493 215.229 342.89 215.93 341.592C216.631 340.295 217.586 339.251 218.794 338.46C220.002 337.67 221.374 337.073 222.911 336.67C224.462 336.268 226.087 335.984 227.788 335.82C229.786 335.612 231.397 335.418 232.62 335.239C233.843 335.045 234.731 334.761 235.282 334.388C235.834 334.016 236.11 333.464 236.11 332.733V332.599C236.11 331.182 235.663 330.086 234.768 329.31C233.888 328.534 232.635 328.147 231.009 328.147C229.294 328.147 227.929 328.527 226.915 329.288C225.901 330.033 225.23 330.973 224.902 332.107L216.087 331.391C216.535 329.303 217.415 327.498 218.727 325.977C220.04 324.44 221.732 323.262 223.805 322.442C225.894 321.607 228.31 321.189 231.054 321.189C232.963 321.189 234.79 321.413 236.535 321.86C238.295 322.308 239.854 323.001 241.211 323.941C242.583 324.88 243.665 326.088 244.455 327.565C245.245 329.027 245.641 330.779 245.641 332.822V356H236.602V351.235H236.334C235.782 352.309 235.044 353.256 234.119 354.076C233.194 354.881 232.083 355.515 230.786 355.978C229.488 356.425 227.989 356.649 226.289 356.649ZM229.018 350.071C230.42 350.071 231.658 349.795 232.732 349.244C233.806 348.677 234.649 347.916 235.26 346.962C235.872 346.007 236.177 344.926 236.177 343.718V340.071C235.879 340.265 235.469 340.444 234.947 340.608C234.44 340.757 233.866 340.899 233.224 341.033C232.583 341.152 231.941 341.264 231.3 341.369C230.659 341.458 230.077 341.54 229.555 341.615C228.437 341.779 227.46 342.04 226.624 342.398C225.789 342.756 225.14 343.24 224.678 343.852C224.216 344.449 223.984 345.194 223.984 346.089C223.984 347.387 224.454 348.379 225.394 349.065C226.348 349.736 227.557 350.071 229.018 350.071ZM271.313 321.636V328.795H250.619V321.636H271.313ZM255.317 313.403H264.847V345.44C264.847 346.32 264.981 347.006 265.25 347.499C265.518 347.976 265.891 348.311 266.369 348.505C266.861 348.699 267.427 348.796 268.069 348.796C268.516 348.796 268.964 348.759 269.411 348.684C269.859 348.595 270.202 348.528 270.44 348.483L271.939 355.575C271.462 355.724 270.791 355.896 269.926 356.089C269.061 356.298 268.009 356.425 266.771 356.47C264.474 356.559 262.461 356.254 260.731 355.553C259.016 354.852 257.681 353.763 256.726 352.286C255.772 350.81 255.302 348.945 255.317 346.693V313.403ZM278.438 356V310.182H296.783C300.154 310.182 302.966 310.681 305.218 311.681C307.47 312.68 309.163 314.067 310.296 315.842C311.43 317.602 311.997 319.63 311.997 321.927C311.997 323.717 311.639 325.29 310.923 326.648C310.207 327.99 309.222 329.094 307.97 329.959C306.732 330.809 305.315 331.413 303.719 331.771V332.218C305.464 332.293 307.097 332.785 308.618 333.695C310.155 334.605 311.4 335.88 312.354 337.521C313.309 339.146 313.786 341.085 313.786 343.337C313.786 345.768 313.182 347.939 311.974 349.848C310.781 351.742 309.014 353.241 306.672 354.344C304.33 355.448 301.444 356 298.014 356H278.438ZM288.125 348.08H296.023C298.722 348.08 300.691 347.566 301.929 346.537C303.167 345.493 303.786 344.105 303.786 342.375C303.786 341.108 303.48 339.989 302.869 339.02C302.257 338.05 301.385 337.289 300.251 336.738C299.133 336.186 297.798 335.91 296.247 335.91H288.125V348.08ZM288.125 329.355H295.307C296.634 329.355 297.813 329.124 298.842 328.661C299.886 328.184 300.706 327.513 301.303 326.648C301.914 325.783 302.22 324.746 302.22 323.538C302.22 321.882 301.631 320.548 300.453 319.533C299.289 318.519 297.634 318.012 295.486 318.012H288.125V329.355ZM335.437 356.671C331.962 356.671 328.956 355.933 326.421 354.456C323.9 352.965 321.954 350.892 320.582 348.237C319.21 345.567 318.524 342.472 318.524 338.952C318.524 335.403 319.21 332.3 320.582 329.646C321.954 326.976 323.9 324.903 326.421 323.426C328.956 321.935 331.962 321.189 335.437 321.189C338.912 321.189 341.91 321.935 344.431 323.426C346.966 324.903 348.92 326.976 350.292 329.646C351.664 332.3 352.35 335.403 352.35 338.952C352.35 342.472 351.664 345.567 350.292 348.237C348.92 350.892 346.966 352.965 344.431 354.456C341.91 355.933 338.912 356.671 335.437 356.671ZM335.482 349.288C337.063 349.288 338.383 348.841 339.442 347.946C340.501 347.036 341.298 345.798 341.835 344.232C342.387 342.666 342.663 340.884 342.663 338.885C342.663 336.887 342.387 335.104 341.835 333.538C341.298 331.972 340.501 330.734 339.442 329.825C338.383 328.915 337.063 328.46 335.482 328.46C333.886 328.46 332.544 328.915 331.455 329.825C330.381 330.734 329.568 331.972 329.016 333.538C328.479 335.104 328.211 336.887 328.211 338.885C328.211 340.884 328.479 342.666 329.016 344.232C329.568 345.798 330.381 347.036 331.455 347.946C332.544 348.841 333.886 349.288 335.482 349.288ZM365.281 321.636L371.59 333.65L378.056 321.636H387.833L377.877 338.818L388.101 356H378.369L371.59 344.12L364.923 356H355.08L365.281 338.818L355.438 321.636H365.281Z" fill="white"/>
<path d="M257.62 158.315C257.62 164.582 255.84 168.993 252.281 171.55C248.722 174.106 242.456 175.385 233.482 175.385C223.156 175.385 214.784 173.931 208.367 171.023C202.201 168.216 199.118 164.707 199.118 160.496C199.118 158.29 199.995 155.608 201.75 152.45C204.808 146.886 209.896 143.352 217.015 141.848C221.025 141.447 225.01 141.021 228.971 140.569C229.522 140.269 229.798 139.918 229.798 139.517C229.798 137.562 227.341 135.205 222.429 132.448C216.914 129.34 211.2 127.786 205.284 127.786C196.912 127.786 190.571 130.969 186.26 137.336C182.5 142.8 180.62 149.994 180.62 158.917C180.62 163.328 181.046 167.94 181.898 172.753C185.408 193.557 189.568 207.919 194.381 215.84C198.241 222.257 203.304 225.465 209.57 225.465C211.876 225.465 214.207 225.264 216.563 224.863C224.885 223.41 231.402 220.201 236.114 215.238C238.42 212.832 241.854 207.568 246.416 199.447C247.018 199.046 247.318 198.996 247.318 199.297C247.619 201.753 247.77 203.859 247.77 205.613C247.77 214.486 245.865 222.332 242.055 229.149C237.042 238.123 229.397 243.512 219.12 245.316C210.899 246.77 203.68 247.497 197.464 247.497C163.977 247.497 147.233 225.766 147.233 182.303C147.233 161.248 152.597 145.382 163.325 134.704C173 125.079 186.385 120.267 203.479 120.267C222.83 120.267 237.242 124.653 246.717 133.426C253.986 140.143 257.62 148.44 257.62 158.315Z" fill="white"/>
<path d="M372.375 239.438C372.375 248.188 369.792 255.688 364.625 261.938C358.375 269.479 349.521 273.25 338.062 273.25C332.271 273.25 323.938 272.333 313.062 270.5C302.229 268.667 294.771 267.75 290.688 267.75C285.146 267.75 280.833 268.771 277.75 270.812L278 254.938C279.25 254.396 280.833 254.125 282.75 254.125C285.833 254.125 289 254.938 292.25 256.562C286.792 237.271 284.062 215.854 284.062 192.312C284.062 191.979 284.083 191.458 284.125 190.75C284.167 190 284.188 189.458 284.188 189.125C284.188 186.292 282.854 184.583 280.188 184C277.479 183.625 274.792 183.25 272.125 182.875C271.375 182.625 271 180.708 271 177.125C271 173.25 271.208 170.458 271.625 168.75C280.667 174.333 291.458 177.125 304 177.125C310.167 177.125 316.958 176.438 324.375 175.062C329.917 174.021 334.688 173.5 338.688 173.5C347.396 173.5 353.75 175.604 357.75 179.812C360.75 182.938 362.25 186.938 362.25 191.812C362.25 204.812 356.75 213.083 345.75 216.625C346.333 216.542 347.271 216.5 348.562 216.5C356.562 216.5 362.708 219 367 224C370.583 228.167 372.375 233.312 372.375 239.438ZM346.75 196.938C346.75 194.771 344.771 193.042 340.812 191.75C337.271 190.583 333.062 190 328.188 190C322.354 190 316.312 191.229 310.062 193.688C303.646 196.229 300.438 198.812 300.438 201.438C300.438 203.354 302.562 205.104 306.812 206.688C310.938 208.188 315.292 208.938 319.875 208.938C325 208.938 330.583 207.771 336.625 205.438C343.375 202.812 346.75 199.979 346.75 196.938ZM358.125 242.125C358.125 239 354.958 236.271 348.625 233.938C342.667 231.729 336.292 230.625 329.5 230.625C324.167 230.625 319.188 231.271 314.562 232.562C309.229 234.062 306.562 235.958 306.562 238.25C306.562 241.042 309.625 243.854 315.75 246.688C322.042 249.604 328.458 251.062 335 251.062C341.625 251.062 347.125 250.25 351.5 248.625C355.917 246.958 358.125 244.792 358.125 242.125Z" fill="white"/>
</g>
<defs>
<filter id="filter0_d_84_19" x="0" y="0" width="520" height="520" filterUnits="userSpaceOnUse" color-interpolation-filters="sRGB">
<feFlood flood-opacity="0" result="BackgroundImageFix"/>
<feColorMatrix in="SourceAlpha" type="matrix" values="0 0 0 0 0 0 0 0 0 0 0 0 0 0 0 0 0 0 127 0" result="hardAlpha"/>
<feOffset dy="4"/>
<feGaussianBlur stdDeviation="2"/>
<feComposite in2="hardAlpha" operator="out"/>
<feColorMatrix type="matrix" values="0 0 0 0 0 0 0 0 0 0 0 0 0 0 0 0 0 0 0.25 0"/>
<feBlend mode="normal" in2="BackgroundImageFix" result="effect1_dropShadow_84_19"/>
<feBlend mode="normal" in="SourceGraphic" in2="effect1_dropShadow_84_19" result="shape"/>
</filter>
<linearGradient id="paint0_linear_84_19" x1="260" y1="0" x2="260" y2="512" gradientUnits="userSpaceOnUse">
<stop offset="0.103651"/>
<stop offset="1" stop-color="#666666"/>
</linearGradient>
</defs>
</svg>
